<mxfile host="app.diagrams.net" modified="2023-04-25T02:02:54.106Z" agent="Mozilla/5.0 (Macintosh; Intel Mac OS X 10_15_7) AppleWebKit/537.36 (KHTML, like Gecko) Chrome/112.0.0.0 Safari/537.36" etag="XZsLYvCyBrH657ZBz4aF" version="21.2.1" type="github">
  <diagram name="Page-1" id="T1zJYFFlIM6Qe4CFHpOK">
    <mxGraphModel dx="601" dy="901" grid="1" gridSize="10" guides="1" tooltips="1" connect="1" arrows="1" fold="1" page="1" pageScale="1" pageWidth="850" pageHeight="1100" math="0" shadow="0">
      <root>
        <mxCell id="0" />
        <mxCell id="1" parent="0" />
        <mxCell id="IoKXvYPVLM2P1b_bKuFa-34" value="" style="rounded=1;arcSize=10;dashed=1;fillColor=none;gradientColor=none;dashPattern=8 3 1 3;strokeWidth=2;" vertex="1" parent="1">
          <mxGeometry x="870" y="253" width="810" height="617" as="geometry" />
        </mxCell>
        <mxCell id="IoKXvYPVLM2P1b_bKuFa-18" value="" style="rounded=1;arcSize=10;dashed=0;fillColor=none;gradientColor=none;strokeWidth=2;" vertex="1" parent="1">
          <mxGeometry x="1329" y="563" width="330" height="190" as="geometry" />
        </mxCell>
        <mxCell id="IoKXvYPVLM2P1b_bKuFa-25" style="edgeStyle=orthogonalEdgeStyle;rounded=0;orthogonalLoop=1;jettySize=auto;html=1;entryX=0;entryY=0.5;entryDx=0;entryDy=0;" edge="1" parent="1" source="IoKXvYPVLM2P1b_bKuFa-10" target="IoKXvYPVLM2P1b_bKuFa-14">
          <mxGeometry relative="1" as="geometry" />
        </mxCell>
        <mxCell id="IoKXvYPVLM2P1b_bKuFa-10" value="" style="shape=image;html=1;verticalAlign=top;verticalLabelPosition=bottom;labelBackgroundColor=#ffffff;imageAspect=0;aspect=fixed;image=https://cdn1.iconfinder.com/data/icons/picons-social/57/github_rounded-128.png" vertex="1" parent="1">
          <mxGeometry x="899" y="348" width="90" height="90" as="geometry" />
        </mxCell>
        <mxCell id="IoKXvYPVLM2P1b_bKuFa-23" style="edgeStyle=orthogonalEdgeStyle;rounded=0;orthogonalLoop=1;jettySize=auto;html=1;" edge="1" parent="1" source="IoKXvYPVLM2P1b_bKuFa-14" target="IoKXvYPVLM2P1b_bKuFa-15">
          <mxGeometry relative="1" as="geometry" />
        </mxCell>
        <mxCell id="IoKXvYPVLM2P1b_bKuFa-14" value="" style="shape=image;verticalLabelPosition=bottom;verticalAlign=top;imageAspect=0;image=https://camo.githubusercontent.com/eeb25c8fe7d597494949032a0a1b2e79830bd8c69d5cc495efdb62fac04007c0/68747470733a2f2f63646e2e73766172756e2e6465762f67682f616374696f6e732e706e67" vertex="1" parent="1">
          <mxGeometry x="1089" y="353" width="80" height="80" as="geometry" />
        </mxCell>
        <mxCell id="IoKXvYPVLM2P1b_bKuFa-22" style="edgeStyle=orthogonalEdgeStyle;rounded=0;orthogonalLoop=1;jettySize=auto;html=1;entryX=0.091;entryY=0.5;entryDx=0;entryDy=0;entryPerimeter=0;" edge="1" parent="1" source="IoKXvYPVLM2P1b_bKuFa-15" target="IoKXvYPVLM2P1b_bKuFa-17">
          <mxGeometry relative="1" as="geometry" />
        </mxCell>
        <mxCell id="IoKXvYPVLM2P1b_bKuFa-15" value="" style="shape=image;verticalLabelPosition=bottom;verticalAlign=top;imageAspect=0;image=https://blog.o2b.com.br/content/images/2022/09/terraform-logo-1.png" vertex="1" parent="1">
          <mxGeometry x="1059" y="580.5" width="140" height="105" as="geometry" />
        </mxCell>
        <mxCell id="IoKXvYPVLM2P1b_bKuFa-17" value="" style="sketch=0;pointerEvents=1;shadow=0;dashed=0;html=1;strokeColor=none;fillColor=#DF8C42;labelPosition=center;verticalLabelPosition=bottom;verticalAlign=top;align=center;outlineConnect=0;shape=mxgraph.veeam2.aws_s3;" vertex="1" parent="1">
          <mxGeometry x="1369" y="613" width="44" height="40" as="geometry" />
        </mxCell>
        <mxCell id="IoKXvYPVLM2P1b_bKuFa-19" value="" style="dashed=0;html=1;shape=mxgraph.aws3.cloud;fillColor=#F58536;gradientColor=none;dashed=0;" vertex="1" parent="1">
          <mxGeometry x="1359" y="523" width="82" height="56" as="geometry" />
        </mxCell>
        <mxCell id="IoKXvYPVLM2P1b_bKuFa-20" value="&lt;h1 style=&quot;font-size: 8px;&quot;&gt;&lt;font style=&quot;font-size: 8px;&quot;&gt;S3 Bucket - TF&amp;nbsp;&lt;/font&gt;State File&lt;/h1&gt;" style="text;html=1;strokeColor=none;fillColor=none;spacing=5;spacingTop=-20;whiteSpace=wrap;overflow=hidden;rounded=0;" vertex="1" parent="1">
          <mxGeometry x="1339" y="663" width="104" height="10" as="geometry" />
        </mxCell>
        <mxCell id="IoKXvYPVLM2P1b_bKuFa-27" value="&lt;h1 style=&quot;font-size: 8px;&quot;&gt;Github Repository&lt;/h1&gt;" style="text;html=1;strokeColor=none;fillColor=none;spacing=5;spacingTop=-20;whiteSpace=wrap;overflow=hidden;rounded=0;" vertex="1" parent="1">
          <mxGeometry x="904" y="343" width="80" height="10" as="geometry" />
        </mxCell>
        <mxCell id="IoKXvYPVLM2P1b_bKuFa-28" value="&lt;h1 style=&quot;font-size: 8px;&quot;&gt;Github Actions&lt;/h1&gt;" style="text;html=1;strokeColor=none;fillColor=none;spacing=5;spacingTop=-20;whiteSpace=wrap;overflow=hidden;rounded=0;" vertex="1" parent="1">
          <mxGeometry x="1093.5" y="338" width="71" height="10" as="geometry" />
        </mxCell>
        <mxCell id="IoKXvYPVLM2P1b_bKuFa-29" value="&lt;h1 style=&quot;font-size: 8px;&quot;&gt;Terraform&lt;/h1&gt;" style="text;html=1;strokeColor=none;fillColor=none;spacing=5;spacingTop=-20;whiteSpace=wrap;overflow=hidden;rounded=0;" vertex="1" parent="1">
          <mxGeometry x="1106" y="685.5" width="46" height="10" as="geometry" />
        </mxCell>
        <mxCell id="IoKXvYPVLM2P1b_bKuFa-31" value="Security Group - HTTP 80" style="fontStyle=0;verticalAlign=top;align=center;spacingTop=-2;fillColor=none;rounded=0;whiteSpace=wrap;html=1;strokeColor=#FF0000;strokeWidth=2;dashed=1;container=1;collapsible=0;expand=0;recursiveResize=0;" vertex="1" parent="1">
          <mxGeometry x="1469" y="593" width="170" height="140" as="geometry" />
        </mxCell>
        <mxCell id="IoKXvYPVLM2P1b_bKuFa-33" value="Amazon EC2" style="sketch=0;outlineConnect=0;fontColor=#232F3E;gradientColor=none;strokeColor=#ffffff;fillColor=#232F3E;dashed=0;verticalLabelPosition=middle;verticalAlign=bottom;align=center;html=1;whiteSpace=wrap;fontSize=10;fontStyle=1;spacing=3;shape=mxgraph.aws4.productIcon;prIcon=mxgraph.aws4.ec2;movable=1;resizable=1;rotatable=1;deletable=1;editable=1;locked=0;connectable=1;" vertex="1" parent="IoKXvYPVLM2P1b_bKuFa-31">
          <mxGeometry x="60" y="35" width="50" height="80" as="geometry" />
        </mxCell>
      </root>
    </mxGraphModel>
  </diagram>
</mxfile>
